<?xml version="1.0" encoding="iso-8859-1"?>
<!-- Uploaded to: SVG Repo, www.svgrepo.com, Generator: SVG Repo Mixer Tools -->
<svg fill="#FFFFFF" height="800px" width="800px" version="1.1" id="Layer_1" xmlns="http://www.w3.org/2000/svg" xmlns:xlink="http://www.w3.org/1999/xlink" 
	 viewBox="0 0 511.999 511.999" xml:space="preserve">
<g>
	<g>
		<path d="M434.387,348.346c42.796,0,77.612-34.817,77.612-77.612c0-42.795-34.817-77.612-77.612-77.612h-25.838v-36.619
			c0-57.985-47.563-105.159-106.026-105.159c-10.204,0-20.242,1.437-29.951,4.28c-22.94-18.468-51.397-28.546-81.077-28.546
			c-71.366,0-129.425,58.06-129.425,129.424v140.678c0,33.827,11.641,64.984,31.124,89.683H55.402c-0.024,0-0.047,0-0.071,0H15.02
			c-8.295,0-15.02,6.725-15.02,15.02c0,8.295,6.725,15.02,15.02,15.02h31.186l11.819,22.273
			c14.971,28.215,44.114,45.743,76.055,45.743h203.153c31.941,0,61.084-17.528,76.055-45.743l11.819-22.273h31.186
			c8.295,0,15.02-6.725,15.02-15.02c0-8.295-6.725-15.02-15.02-15.02h-78.87c9.114-11.554,16.504-24.524,21.797-38.517H434.387z
			 M408.549,297.18v-74.018h25.838c26.232,0,47.571,21.341,47.571,47.571c0,26.231-21.341,47.571-47.571,47.571h-27.381
			C408.017,311.406,408.549,304.355,408.549,297.18z M191.496,57.118c25.135,0,49.126,9.411,67.553,26.499
			c4.219,3.912,10.301,5.071,15.663,2.983c8.89-3.462,18.248-5.216,27.812-5.216c36.697,0,67.398,25.85,74.457,60.097H93.245
			C100.507,93.783,141.799,57.118,191.496,57.118z M391.1,416.903l-4.347,8.193c-9.748,18.371-28.723,29.782-49.519,29.782H134.081
			c-20.797,0-39.771-11.411-49.519-29.782l-4.347-8.193H391.1z M378.508,297.18c0,36.225-16.839,68.586-43.094,89.683H135.205
			c-26.256-21.098-43.094-53.458-43.094-89.683v-50.506h286.397V297.18z M378.508,216.634H92.111v-45.11h286.397V216.634z"/>
	</g>
</g>
</svg>